<svg id="visual" viewBox="0 0 900 600" width="900" height="600" xmlns="http://www.w3.org/2000/svg" xmlns:xlink="http://www.w3.org/1999/xlink" version="1.1"><rect x="0" y="0" width="900" height="600" fill="#283c38"></rect><g fill="#424146"><circle r="18" cx="344" cy="577"></circle><circle r="4" cx="80" cy="508"></circle><circle r="11" cx="265" cy="326"></circle><circle r="13" cx="32" cy="353"></circle><circle r="16" cx="179" cy="185"></circle><circle r="16" cx="117" cy="183"></circle><circle r="7" cx="256" cy="119"></circle><circle r="13" cx="701" cy="39"></circle><circle r="12" cx="310" cy="426"></circle><circle r="4" cx="772" cy="594"></circle><circle r="16" cx="770" cy="231"></circle><circle r="6" cx="623" cy="14"></circle><circle r="9" cx="898" cy="451"></circle><circle r="6" cx="548" cy="232"></circle><circle r="11" cx="414" cy="263"></circle><circle r="13" cx="116" cy="63"></circle><circle r="4" cx="121" cy="504"></circle><circle r="7" cx="170" cy="372"></circle><circle r="16" cx="100" cy="129"></circle><circle r="10" cx="377" cy="220"></circle><circle r="13" cx="121" cy="397"></circle><circle r="10" cx="520" cy="373"></circle><circle r="9" cx="403" cy="16"></circle><circle r="13" cx="826" cy="69"></circle><circle r="9" cx="24" cy="274"></circle><circle r="6" cx="463" cy="454"></circle><circle r="4" cx="515" cy="111"></circle><circle r="16" cx="621" cy="163"></circle><circle r="16" cx="820" cy="572"></circle><circle r="15" cx="575" cy="331"></circle><circle r="13" cx="419" cy="536"></circle><circle r="12" cx="676" cy="487"></circle><circle r="4" cx="540" cy="14"></circle><circle r="11" cx="239" cy="34"></circle><circle r="16" cx="300" cy="86"></circle><circle r="15" cx="844" cy="399"></circle><circle r="7" cx="323" cy="388"></circle><circle r="8" cx="523" cy="328"></circle><circle r="11" cx="550" cy="53"></circle><circle r="7" cx="707" cy="137"></circle><circle r="7" cx="809" cy="408"></circle><circle r="12" cx="775" cy="557"></circle><circle r="12" cx="638" cy="105"></circle><circle r="7" cx="286" cy="16"></circle><circle r="12" cx="433" cy="334"></circle><circle r="4" cx="662" cy="443"></circle><circle r="5" cx="143" cy="219"></circle><circle r="3" cx="315" cy="287"></circle><circle r="4" cx="81" cy="188"></circle><circle r="5" cx="183" cy="466"></circle><circle r="7" cx="853" cy="10"></circle><circle r="6" cx="779" cy="78"></circle><circle r="14" cx="11" cy="396"></circle><circle r="6" cx="522" cy="535"></circle><circle r="6" cx="357" cy="38"></circle><circle r="10" cx="850" cy="546"></circle><circle r="3" cx="615" cy="460"></circle><circle r="3" cx="155" cy="551"></circle><circle r="6" cx="379" cy="347"></circle><circle r="6" cx="273" cy="154"></circle><circle r="16" cx="693" cy="229"></circle><circle r="8" cx="758" cy="410"></circle><circle r="3" cx="482" cy="82"></circle><circle r="10" cx="706" cy="537"></circle><circle r="15" cx="98" cy="339"></circle><circle r="15" cx="175" cy="239"></circle><circle r="12" cx="54" cy="51"></circle><circle r="8" cx="276" cy="474"></circle><circle r="15" cx="585" cy="367"></circle><circle r="12" cx="804" cy="367"></circle><circle r="11" cx="178" cy="301"></circle><circle r="7" cx="85" cy="579"></circle><circle r="6" cx="748" cy="97"></circle><circle r="13" cx="805" cy="523"></circle><circle r="4" cx="297" cy="598"></circle><circle r="14" cx="208" cy="99"></circle><circle r="8" cx="796" cy="146"></circle><circle r="6" cx="547" cy="195"></circle><circle r="6" cx="230" cy="336"></circle><circle r="13" cx="815" cy="476"></circle><circle r="16" cx="31" cy="567"></circle><circle r="14" cx="179" cy="44"></circle><circle r="15" cx="85" cy="94"></circle><circle r="3" cx="680" cy="350"></circle><circle r="10" cx="231" cy="70"></circle><circle r="14" cx="518" cy="576"></circle><circle r="10" cx="464" cy="380"></circle><circle r="10" cx="444" cy="122"></circle><circle r="4" cx="235" cy="463"></circle><circle r="5" cx="420" cy="464"></circle><circle r="4" cx="147" cy="5"></circle><circle r="11" cx="367" cy="449"></circle><circle r="10" cx="316" cy="171"></circle><circle r="4" cx="213" cy="167"></circle><circle r="14" cx="226" cy="239"></circle><circle r="6" cx="636" cy="360"></circle><circle r="4" cx="642" cy="507"></circle><circle r="16" cx="120" cy="263"></circle><circle r="7" cx="53" cy="246"></circle><circle r="11" cx="466" cy="587"></circle><circle r="16" cx="62" cy="151"></circle><circle r="4" cx="621" cy="589"></circle><circle r="14" cx="595" cy="246"></circle><circle r="15" cx="526" cy="411"></circle><circle r="6" cx="169" cy="115"></circle><circle r="15" cx="190" cy="404"></circle><circle r="9" cx="226" cy="570"></circle><circle r="9" cx="832" cy="165"></circle><circle r="12" cx="75" cy="449"></circle><circle r="12" cx="165" cy="598"></circle><circle r="4" cx="806" cy="19"></circle><circle r="9" cx="582" cy="75"></circle><circle r="16" cx="470" cy="187"></circle><circle r="10" cx="556" cy="470"></circle><circle r="12" cx="516" cy="489"></circle><circle r="6" cx="70" cy="312"></circle><circle r="3" cx="595" cy="197"></circle><circle r="11" cx="366" cy="539"></circle><circle r="3" cx="500" cy="20"></circle><circle r="6" cx="26" cy="22"></circle><circle r="9" cx="8" cy="228"></circle><circle r="13" cx="337" cy="316"></circle><circle r="6" cx="718" cy="459"></circle><circle r="14" cx="275" cy="378"></circle><circle r="13" cx="430" cy="208"></circle><circle r="10" cx="669" cy="173"></circle><circle r="15" cx="377" cy="147"></circle><circle r="7" cx="411" cy="165"></circle><circle r="11" cx="442" cy="76"></circle><circle r="16" cx="117" cy="434"></circle><circle r="7" cx="696" cy="571"></circle><circle r="11" cx="19" cy="515"></circle><circle r="16" cx="383" cy="412"></circle><circle r="3" cx="92" cy="221"></circle><circle r="11" cx="858" cy="287"></circle><circle r="12" cx="14" cy="321"></circle><circle r="3" cx="769" cy="14"></circle><circle r="7" cx="410" cy="97"></circle><circle r="14" cx="730" cy="282"></circle><circle r="13" cx="365" cy="91"></circle><circle r="14" cx="88" cy="25"></circle><circle r="13" cx="188" cy="340"></circle><circle r="5" cx="668" cy="11"></circle><circle r="13" cx="323" cy="548"></circle><circle r="7" cx="227" cy="523"></circle><circle r="12" cx="400" cy="61"></circle><circle r="10" cx="716" cy="174"></circle><circle r="16" cx="271" cy="213"></circle><circle r="13" cx="892" cy="347"></circle><circle r="6" cx="555" cy="144"></circle><circle r="7" cx="449" cy="287"></circle><circle r="12" cx="811" cy="206"></circle><circle r="3" cx="580" cy="581"></circle><circle r="6" cx="671" cy="281"></circle><circle r="11" cx="599" cy="131"></circle><circle r="9" cx="151" cy="419"></circle><circle r="7" cx="597" cy="406"></circle><circle r="9" cx="672" cy="115"></circle><circle r="14" cx="46" cy="207"></circle><circle r="10" cx="883" cy="575"></circle><circle r="8" cx="577" cy="500"></circle><circle r="12" cx="723" cy="397"></circle><circle r="11" cx="716" cy="499"></circle><circle r="12" cx="10" cy="119"></circle><circle r="6" cx="563" cy="429"></circle><circle r="8" cx="752" cy="450"></circle><circle r="13" cx="616" cy="303"></circle><circle r="13" cx="759" cy="163"></circle><circle r="5" cx="846" cy="122"></circle><circle r="14" cx="806" cy="273"></circle><circle r="7" cx="879" cy="197"></circle><circle r="13" cx="412" cy="373"></circle><circle r="14" cx="390" cy="302"></circle><circle r="16" cx="443" cy="37"></circle><circle r="11" cx="344" cy="355"></circle><circle r="8" cx="510" cy="55"></circle><circle r="3" cx="486" cy="309"></circle><circle r="9" cx="622" cy="53"></circle><circle r="13" cx="516" cy="454"></circle><circle r="3" cx="656" cy="550"></circle><circle r="10" cx="29" cy="430"></circle><circle r="15" cx="250" cy="287"></circle><circle r="16" cx="331" cy="486"></circle><circle r="12" cx="636" cy="200"></circle></g></svg>