<svg id="visual" viewBox="0 0 960 540" width="960" height="540" xmlns="http://www.w3.org/2000/svg" xmlns:xlink="http://www.w3.org/1999/xlink" version="1.1"><rect x="0" y="0" width="960" height="540" fill="#01f0fe"></rect><defs><linearGradient id="grad1_0" x1="43.8%" y1="0%" x2="100%" y2="100%"><stop offset="14.444444444444446%" stop-color="#01f0fe" stop-opacity="1"></stop><stop offset="85.55555555555554%" stop-color="#01f0fe" stop-opacity="1"></stop></linearGradient></defs><defs><linearGradient id="grad2_0" x1="0%" y1="0%" x2="56.3%" y2="100%"><stop offset="14.444444444444446%" stop-color="#01f0fe" stop-opacity="1"></stop><stop offset="85.55555555555554%" stop-color="#01f0fe" stop-opacity="1"></stop></linearGradient></defs><g transform="translate(960, 0)"><path d="M0 432C-72.8 416.6 -145.6 401.3 -212 367.2C-278.4 333.1 -338.5 280.3 -374.1 216C-409.7 151.7 -420.9 75.8 -432 0L0 0Z" fill="#4daefe"></path></g><g transform="translate(0, 540)"><path d="M0 -432C78.7 -422.5 157.5 -413.1 216 -374.1C274.5 -335.2 312.9 -266.8 345.5 -199.5C378.2 -132.2 405.1 -66.1 432 0L0 0Z" fill="#4daefe"></path></g></svg>