<svg id="visual" viewBox="0 0 900 600" width="900" height="600" xmlns="http://www.w3.org/2000/svg" xmlns:xlink="http://www.w3.org/1999/xlink" version="1.1"><rect x="0" y="0" width="900" height="600" fill="#3a4f50"></rect><defs><linearGradient id="grad1_0" x1="33.3%" y1="0%" x2="100%" y2="100%"><stop offset="20%" stop-color="#0ef6cc" stop-opacity="1"></stop><stop offset="80%" stop-color="#0ef6cc" stop-opacity="1"></stop></linearGradient></defs><defs><linearGradient id="grad1_1" x1="33.3%" y1="0%" x2="100%" y2="100%"><stop offset="20%" stop-color="#0ef6cc" stop-opacity="1"></stop><stop offset="80%" stop-color="#2d9f97" stop-opacity="1"></stop></linearGradient></defs><defs><linearGradient id="grad1_2" x1="33.3%" y1="0%" x2="100%" y2="100%"><stop offset="20%" stop-color="#3a4f50" stop-opacity="1"></stop><stop offset="80%" stop-color="#2d9f97" stop-opacity="1"></stop></linearGradient></defs><defs><linearGradient id="grad2_0" x1="0%" y1="0%" x2="66.7%" y2="100%"><stop offset="20%" stop-color="#0ef6cc" stop-opacity="1"></stop><stop offset="80%" stop-color="#0ef6cc" stop-opacity="1"></stop></linearGradient></defs><defs><linearGradient id="grad2_1" x1="0%" y1="0%" x2="66.7%" y2="100%"><stop offset="20%" stop-color="#2d9f97" stop-opacity="1"></stop><stop offset="80%" stop-color="#0ef6cc" stop-opacity="1"></stop></linearGradient></defs><defs><linearGradient id="grad2_2" x1="0%" y1="0%" x2="66.7%" y2="100%"><stop offset="20%" stop-color="#2d9f97" stop-opacity="1"></stop><stop offset="80%" stop-color="#3a4f50" stop-opacity="1"></stop></linearGradient></defs><g transform="translate(900, 0)"><path d="M0 432.7C-64.1 433.7 -128.1 434.7 -165.6 399.7C-203 364.8 -213.9 293.8 -252.4 252.4C-290.9 211.1 -357.1 199.4 -391.7 162.3C-426.4 125.1 -429.5 62.6 -432.7 0L0 0Z" fill="#387675"></path><path d="M0 288.4C-42.7 289.1 -85.4 289.8 -110.4 266.5C-135.4 243.2 -142.6 195.9 -168.3 168.3C-194 140.7 -238.1 132.9 -261.1 108.2C-284.2 83.4 -286.3 41.7 -288.4 0L0 0Z" fill="#19cab4"></path><path d="M0 144.2C-21.4 144.6 -42.7 144.9 -55.2 133.2C-67.7 121.6 -71.3 97.9 -84.1 84.1C-97 70.4 -119 66.5 -130.6 54.1C-142.1 41.7 -143.2 20.9 -144.2 0L0 0Z" fill="#0ef6cc"></path></g><g transform="translate(0, 600)"><path d="M0 -432.7C63.2 -435 126.5 -437.2 165.6 -399.7C204.6 -362.2 219.5 -284.9 233.3 -233.3C247.1 -181.8 259.8 -155.9 292.9 -121.3C325.9 -86.7 379.3 -43.4 432.7 0L0 0Z" fill="#387675"></path><path d="M0 -288.4C42.2 -290 84.3 -291.5 110.4 -266.5C136.4 -241.5 146.4 -189.9 155.6 -155.6C164.8 -121.2 173.2 -103.9 195.2 -80.9C217.3 -57.8 252.9 -28.9 288.4 0L0 0Z" fill="#19cab4"></path><path d="M0 -144.2C21.1 -145 42.2 -145.7 55.2 -133.2C68.2 -120.7 73.2 -95 77.8 -77.8C82.4 -60.6 86.6 -52 97.6 -40.4C108.6 -28.9 126.4 -14.5 144.2 0L0 0Z" fill="#0ef6cc"></path></g></svg>